<svg width="988" height="211" viewBox="0 0 988 211" fill="none" xmlns="http://www.w3.org/2000/svg">
<g clip-path="url(#clip0_396_2)">
<path d="M5.19074 30.0902C5.18848 29.9152 5.24092 29.7439 5.34074 29.6002C12.3407 19.3802 24.7207 15.4502 37.4107 15.4502C48.9671 15.5223 60.2855 18.7408 70.1507 24.7602C81.6007 32.2202 91.1507 43.1302 93.0507 55.1102C96.4907 80.9102 82.0507 91.1102 69.9307 97.2802C69.7638 97.3681 69.6303 97.5085 69.551 97.6797C69.4717 97.851 69.4509 98.0435 69.4919 98.2277C69.5328 98.4119 69.6332 98.5776 69.7776 98.6991C69.9219 98.8206 70.1022 98.8913 70.2907 98.9002C83.1807 99.4302 99.4707 100.35 111.951 106.22C130.851 114.74 132.711 131.51 129.781 149.88C124.991 180.5 100.781 190.35 68.7807 197.27C49.0807 201.27 36.0407 200.46 26.7207 194.61C14.0007 185.82 8.92074 164.53 6.26074 145.09C4.66074 132.09 1.73074 108.09 0.670735 85.1902C-0.649265 61.4502 -0.399264 38.7402 5.05074 30.5702C5.1418 30.4266 5.19034 30.2602 5.19074 30.0902Z" fill="#002247"/>
<path d="M342.601 100.1C342.331 126.46 347.181 197.27 312.601 199.67C280.121 202.33 282.601 129.39 280.711 108.09C277.501 74.0001 279.201 19.5001 309.911 16.0001C343.911 12.1001 343.131 71.1001 342.601 100.39V100.12V100.1Z" fill="#002247"/>
<path d="M525.571 199.93C511.991 200.46 506.671 183.93 504.571 164.26C502.741 146.19 503.461 125.76 503.031 114.26C502.973 112.9 502.513 111.588 501.711 110.488C500.908 109.388 499.798 108.55 498.521 108.08C491.631 105.52 485.171 100.9 484.071 93.1502C482.791 84.4202 488.831 78.9302 495.661 77.4802C497.167 77.1456 498.514 76.3073 499.48 75.1037C500.445 73.9001 500.971 72.4031 500.971 70.8602C501.041 59.2702 500.331 47.4802 501.901 36.4402C505.101 12.4402 513.091 3.17016 533.051 0.500164C553.281 -2.41984 573.521 6.63016 562.871 29.5002C557.871 39.9502 549.431 40.5502 542.711 39.1302C541.713 38.9102 540.678 38.9115 539.681 39.1341C538.683 39.3566 537.746 39.795 536.936 40.4183C536.126 41.0416 535.462 41.8348 534.991 42.7422C534.521 43.6495 534.254 44.6489 534.211 45.6702C533.91 53.8658 534.308 62.0722 535.401 70.2002C535.608 71.8038 536.414 73.27 537.656 74.3048C538.899 75.3396 540.486 75.8666 542.101 75.7802C547.571 75.5002 553.011 76.2902 553.791 85.9902C555.031 98.8902 548.961 103.17 542.691 105.57C541.192 106.134 539.918 107.174 539.066 108.53C538.214 109.886 537.829 111.485 537.971 113.08C538.971 123.8 541.281 142.88 541.281 160.53C541.011 181.53 537.551 200.2 525.281 200.46L525.571 199.93Z" fill="#002247"/>
<path d="M734.159 199.93C720.589 200.46 715.259 183.93 713.159 164.26C711.079 143.65 712.309 119.97 711.359 110.01C711.344 109.836 711.275 109.672 711.162 109.539C711.049 109.407 710.898 109.313 710.729 109.27C702.629 107.07 693.959 102.27 692.659 93.1798C691.119 82.6298 700.269 76.7998 708.579 77.1798C708.692 77.1838 708.805 77.1655 708.911 77.1259C709.017 77.0864 709.114 77.0263 709.196 76.9492C709.279 76.8722 709.346 76.7795 709.392 76.6767C709.439 76.5738 709.465 76.4627 709.469 76.3498C709.909 63.0498 708.679 49.2698 710.469 36.5098C713.659 12.5098 721.649 3.22976 741.619 0.56976C761.849 -2.36024 782.079 6.68976 771.429 29.5698C764.619 43.9598 751.109 39.6798 744.729 37.1598C744.61 37.1134 744.482 37.0942 744.355 37.1036C744.227 37.1129 744.103 37.1506 743.992 37.2138C743.881 37.277 743.786 37.3642 743.712 37.469C743.639 37.5739 743.59 37.6937 743.569 37.8198C741.729 49.5998 742.949 63.4298 744.699 75.4098C744.733 75.6199 744.842 75.8106 745.006 75.9467C745.169 76.0827 745.377 76.1549 745.589 76.1498C752.199 75.9198 761.359 73.2098 762.379 86.0098C763.939 102.06 754.159 104.77 746.769 107.11C746.588 107.167 746.432 107.282 746.323 107.438C746.215 107.593 746.16 107.78 746.169 107.97C746.589 116.53 749.869 139.55 749.869 160.55C749.599 181.55 746.139 200.22 733.869 200.49L734.159 199.93Z" fill="#002247"/>
<path d="M942.679 77.6902C942.818 77.5488 943.002 77.4604 943.199 77.4402C960.199 75.6202 982.019 76.7902 979.369 96.6402C976.969 113.41 938.899 103.3 941.299 117.94C942.899 127.25 982.829 121.66 978.839 160C976.709 182.1 952.209 199.13 931.979 200.73C920.539 202.06 902.979 196.2 902.169 183.16C900.299 150.68 944.229 166.92 943.959 157.6C943.429 141.9 897.369 160.27 903.759 114.21C906.939 93.8002 919.359 80.7802 942.069 78.0402C942.258 78.0191 942.435 77.9345 942.569 77.8002L942.679 77.6902Z" fill="#002247"/>
<path d="M204.34 210.81C248.076 210.81 283.53 175.356 283.53 131.62C283.53 87.8847 248.076 52.4302 204.34 52.4302C160.605 52.4302 125.15 87.8847 125.15 131.62C125.15 175.356 160.605 210.81 204.34 210.81Z" fill="#F1AD00"/>
<path d="M418.049 210.81C461.785 210.81 497.239 175.356 497.239 131.62C497.239 87.8847 461.785 52.4302 418.049 52.4302C374.314 52.4302 338.859 87.8847 338.859 131.62C338.859 175.356 374.314 210.81 418.049 210.81Z" fill="#FF8D9E"/>
<path d="M621.01 210.81C664.746 210.81 700.2 175.356 700.2 131.62C700.2 87.8847 664.746 52.4302 621.01 52.4302C577.275 52.4302 541.82 87.8847 541.82 131.62C541.82 175.356 577.275 210.81 621.01 210.81Z" fill="#0098FF"/>
<path d="M831.17 210.81C874.906 210.81 910.36 175.356 910.36 131.62C910.36 87.8847 874.906 52.4302 831.17 52.4302C787.435 52.4302 751.98 87.8847 751.98 131.62C751.98 175.356 787.435 210.81 831.17 210.81Z" fill="#6E0AAF"/>
</g>
<defs>
<clipPath id="clip0_396_2">
<rect width="987.22" height="210.81" fill="white"/>
</clipPath>
</defs>
</svg>
